<?xml version="1.0" encoding="utf-8"?>
<!-- Generator: Adobe Illustrator 27.2.0, SVG Export Plug-In . SVG Version: 6.00 Build 0)  -->
<svg version="1.1" id="Ebene_1" xmlns="http://www.w3.org/2000/svg" xmlns:xlink="http://www.w3.org/1999/xlink" x="0px" y="0px"
	 viewBox="0 0 159.3 49.7" style="enable-background:new 0 0 159.3 49.7;" xml:space="preserve">
<style type="text/css">
	.st0{enable-background:new    ;}
</style>
<g>
	<g class="st0">
		<path d="M14.4,12.5h9.7v2.6h-6.3v4.5h5.8v2.5h-5.8v7.5h-3.3V12.5z"/>
		<path d="M29.6,12.5v10.2c0,3.5,0.6,4.7,3.3,4.7c2.6,0,3.2-1.3,3.2-4.8V12.5h3.3v10c0,5.3-1.7,7.5-6.7,7.5c-4.9,0-6.5-2-6.5-7.3
			V12.5H29.6z"/>
		<path d="M42.7,12.5H46V27h6.1v2.7h-9.4V12.5z"/>
		<path d="M54.2,12.5h3.3V27h6.1v2.7h-9.4V12.5z"/>
		<path d="M65.1,26.9c1.4,0.3,2.6,0.6,4.1,0.6c2.2,0,3.2-0.8,3.2-2.1c0-1.3-0.6-1.7-3.6-3.2c-3.2-1.7-4.3-2.6-4.3-5.2
			c0-2.8,1.8-4.7,6.2-4.7c1.5,0,2.8,0.2,3.8,0.5l-0.3,2.5c-1.1-0.3-2.1-0.5-3.6-0.5c-2.1,0-3,0.7-3,1.9c0,1.2,0.7,1.6,3.5,3.1
			c3.5,1.8,4.4,2.7,4.4,5.3c0,3.1-1.9,5-6.4,5c-1.5,0-3-0.2-4.4-0.6L65.1,26.9z"/>
		<path d="M88.6,29.4c-1.3,0.3-2.8,0.6-4.1,0.6c-4.7,0-6.8-1.6-6.8-8.8c0-7.2,2.5-9,7-9c1.3,0,2.7,0.2,3.9,0.5l-0.4,2.5
			c-1.1-0.3-2.2-0.5-3.2-0.5c-2.8,0-3.9,0.9-3.9,6.3c0,5.4,1.1,6.3,3.9,6.3c1,0,2.1-0.2,3.2-0.5L88.6,29.4z"/>
		<path d="M91.1,12.5h5.3c4.7,0,6.3,1,6.3,4.5c0,2.6-1.1,4.1-3.8,4.6l4.4,8h-3.8l-3.9-7.5h-1.1v7.5h-3.3V12.5z M96.3,19.6
			c2.4,0,3.1-0.8,3.1-2.5c0-1.6-0.7-2.1-3.1-2.1h-1.9v4.6H96.3z"/>
		<path d="M105.6,12.5h9.8v2.6H109v4.5h6v2.5h-6v4.9h6.5v2.6h-9.8V12.5z"/>
		<path d="M118.4,12.5h9.8v2.6h-6.5v4.5h6v2.5h-6v4.9h6.5v2.6h-9.8V12.5z"/>
		<path d="M131.2,12.5h4.2l4.7,9c0.8,1.5,1.4,2.9,2.1,4.6h0c-0.2-1.7-0.3-3.3-0.3-4.6v-9h2.9v17.1h-4.3l-4.7-9
			c-0.8-1.5-1.4-2.9-2.1-4.6h0c0.1,1.7,0.3,3.3,0.3,4.6v9h-2.9V12.5z"/>
	</g>
	<g class="st0">
		<path d="M76,46.5c-1.1,0-2-0.3-2.6-1c-0.6-0.7-0.9-1.7-0.9-3c0-1.3,0.3-2.3,0.9-3c0.6-0.7,1.5-1,2.7-1c1.1,0,1.9,0.3,2.6,1
			c0.6,0.7,0.9,1.6,0.9,3c0,1.3-0.3,2.3-0.9,3C78.1,46.1,77.2,46.5,76,46.5z M76,45.6c0.6,0,1-0.3,1.3-0.8c0.2-0.5,0.4-1.3,0.4-2.3
			c0-1-0.1-1.8-0.4-2.3c-0.2-0.5-0.7-0.8-1.3-0.8c-0.6,0-1,0.3-1.3,0.8c-0.2,0.5-0.4,1.3-0.4,2.3c0,1,0.1,1.8,0.4,2.3
			C75,45.4,75.4,45.6,76,45.6z"/>
		<path d="M80.6,46.3v-0.7h0.1c0.3,0,0.6-0.1,0.8-0.2c0.2-0.1,0.3-0.4,0.3-0.8v-4.3c0-0.4-0.1-0.7-0.3-0.8c-0.2-0.1-0.5-0.2-0.8-0.2
			h-0.1v-0.7h2.7l0.2,1.1h0.1c0.3-0.5,0.6-0.9,1-1c0.4-0.1,0.8-0.2,1.2-0.2c0.7,0,1.3,0.2,1.7,0.7c0.4,0.4,0.6,1.1,0.6,2.1v3.3
			c0,0.4,0.1,0.7,0.3,0.8c0.2,0.1,0.4,0.2,0.7,0.2h0.1v0.7h-2.9v-4.8c0-0.6-0.1-1.1-0.3-1.4c-0.2-0.3-0.5-0.5-1-0.5
			c-0.4,0-0.6,0.1-0.9,0.3c-0.2,0.2-0.4,0.5-0.4,0.8c-0.1,0.3-0.1,0.7-0.1,1.1v2.8c0,0.4,0.1,0.7,0.3,0.8c0.2,0.1,0.5,0.2,0.8,0.2
			h0.1v0.7H80.6z"/>
		<path d="M93.9,46.5c-1.1,0-2-0.3-2.6-1c-0.6-0.7-0.9-1.6-0.9-2.9c0-1.3,0.3-2.3,0.9-3c0.6-0.7,1.4-1,2.5-1c1,0,1.8,0.3,2.3,0.9
			c0.6,0.6,0.9,1.4,0.9,2.5v0.7h-4.7c0,1,0.2,1.7,0.5,2.1c0.3,0.4,0.8,0.7,1.4,0.7c0.5,0,0.9-0.1,1.2-0.3c0.3-0.2,0.6-0.5,0.8-0.8
			c0.2,0.1,0.3,0.3,0.3,0.6c0,0.2-0.1,0.5-0.3,0.7c-0.2,0.2-0.5,0.4-0.9,0.6S94.5,46.5,93.9,46.5z M92.2,41.8H95
			c0-0.7-0.1-1.3-0.3-1.7s-0.5-0.6-1-0.6c-0.4,0-0.8,0.2-1,0.6C92.4,40.4,92.3,41,92.2,41.8z"/>
		<path d="M97.7,49.7V49h0.1c0.2,0,0.3,0,0.5-0.1c0.2,0,0.3-0.1,0.4-0.3c0.1-0.1,0.2-0.3,0.2-0.6v-7.7c0-0.4-0.1-0.7-0.3-0.8
			c-0.2-0.1-0.4-0.2-0.7-0.2h-0.1v-0.7h2.7l0.2,1.2h0.1c0.2-0.4,0.5-0.7,0.8-1c0.3-0.2,0.8-0.4,1.3-0.4c0.9,0,1.7,0.3,2.1,1
			c0.5,0.6,0.7,1.6,0.7,3c0,1.4-0.2,2.4-0.7,3s-1.2,0.9-2.1,0.9c-0.5,0-1-0.1-1.3-0.3c-0.3-0.2-0.6-0.5-0.8-0.9h-0.1
			c0,0.2,0,0.3,0,0.6c0,0.2,0,0.4,0,0.6c0,0.2,0,0.4,0,0.5v1.1c0,0.3,0.1,0.5,0.2,0.6c0.1,0.1,0.2,0.2,0.4,0.3
			c0.2,0,0.3,0.1,0.5,0.1h0.2v0.7H97.7z M102.4,45.5c0.5,0,0.9-0.2,1.1-0.7c0.2-0.5,0.3-1.2,0.3-2.2c0-1-0.1-1.7-0.3-2.2
			c-0.2-0.5-0.6-0.8-1.1-0.8c-0.6,0-1.1,0.2-1.3,0.7c-0.2,0.5-0.3,1.2-0.3,2.2s0.1,1.7,0.3,2.2C101.4,45.2,101.8,45.5,102.4,45.5z"
			/>
		<path d="M109.4,46.5c-0.6,0-1.1-0.2-1.6-0.6c-0.4-0.4-0.6-1-0.6-1.7c0-0.8,0.3-1.3,0.8-1.7c0.5-0.4,1.3-0.6,2.4-0.6l1.2,0V41
			c0-0.3,0-0.6-0.1-0.9c0-0.3-0.1-0.4-0.3-0.6s-0.4-0.2-0.7-0.2c-0.4,0-0.7,0.1-0.9,0.4c-0.1,0.3-0.2,0.7-0.2,1.1
			c-0.5,0-1-0.1-1.2-0.2c-0.3-0.1-0.4-0.4-0.4-0.7c0-0.3,0.1-0.6,0.4-0.8c0.3-0.2,0.6-0.4,1-0.5c0.4-0.1,0.9-0.1,1.4-0.1
			c0.9,0,1.7,0.2,2.1,0.5c0.5,0.4,0.7,1,0.7,1.9v3.6c0,0.4,0.1,0.7,0.2,0.8c0.1,0.1,0.4,0.2,0.7,0.2h0v0.7h-2.4l-0.3-1.1h-0.1
			c-0.2,0.3-0.4,0.5-0.6,0.7c-0.2,0.2-0.4,0.3-0.7,0.4C110,46.4,109.7,46.5,109.4,46.5z M110,45.5c0.5,0,0.8-0.2,1.1-0.5
			c0.3-0.3,0.4-0.8,0.4-1.4v-1.1l-0.7,0c-0.7,0-1.1,0.2-1.4,0.5c-0.3,0.3-0.4,0.7-0.4,1.2C109,45.1,109.4,45.5,110,45.5z"/>
		<path d="M118.1,49.7c-1.1,0-1.9-0.2-2.4-0.5c-0.5-0.3-0.8-0.8-0.8-1.5c0-0.5,0.2-0.9,0.5-1.2c0.3-0.3,0.8-0.4,1.3-0.5
			c-0.2-0.1-0.4-0.2-0.6-0.4c-0.2-0.2-0.3-0.5-0.3-0.8c0-0.3,0.1-0.6,0.3-0.8c0.2-0.2,0.5-0.4,0.8-0.6c-0.4-0.2-0.7-0.4-1-0.8
			c-0.3-0.4-0.4-0.8-0.4-1.4c0-0.8,0.2-1.5,0.7-1.9c0.5-0.5,1.2-0.7,2.1-0.7c0.3,0,0.7,0,1,0.1c0.3,0.1,0.5,0.2,0.7,0.3
			c0.2-0.2,0.4-0.4,0.7-0.6c0.2-0.1,0.5-0.2,0.8-0.2c0.3,0,0.6,0.1,0.7,0.2c0.2,0.2,0.2,0.3,0.2,0.5c0,0.2-0.1,0.4-0.2,0.5
			c-0.1,0.2-0.4,0.2-0.7,0.2c0-0.2,0-0.3-0.1-0.4c-0.1-0.1-0.2-0.2-0.4-0.2c-0.1,0-0.2,0-0.3,0c-0.1,0-0.2,0.1-0.2,0.1
			c0.2,0.2,0.3,0.5,0.5,0.8c0.1,0.3,0.2,0.6,0.2,1c0,0.7-0.2,1.3-0.7,1.8c-0.4,0.5-1.1,0.7-2.1,0.7c-0.1,0-0.2,0-0.4,0
			c-0.2,0-0.3,0-0.4,0c-0.2,0.1-0.3,0.2-0.4,0.3c-0.1,0.1-0.2,0.3-0.2,0.5c0,0.3,0.3,0.5,0.8,0.5h1.7c0.9,0,1.6,0.2,2,0.6
			c0.4,0.4,0.6,0.9,0.6,1.6c0,0.9-0.3,1.5-1,2C120.5,49.5,119.5,49.7,118.1,49.7z M118.1,48.9c0.9,0,1.5-0.1,1.9-0.4
			c0.4-0.3,0.6-0.6,0.6-1.1c0-0.3-0.1-0.6-0.3-0.7c-0.2-0.1-0.5-0.2-0.9-0.2h-1.5c-0.2,0-0.4,0-0.6,0.1s-0.4,0.2-0.5,0.3
			c-0.1,0.2-0.2,0.4-0.2,0.8c0,0.4,0.1,0.7,0.4,0.9C117.1,48.8,117.5,48.9,118.1,48.9z M118.4,42.9c0.4,0,0.7-0.1,0.8-0.4
			c0.2-0.3,0.2-0.7,0.2-1.3c0-0.6-0.1-1-0.2-1.3c-0.2-0.3-0.4-0.5-0.9-0.5c-0.4,0-0.7,0.2-0.8,0.5c-0.2,0.3-0.2,0.8-0.2,1.3
			c0,0.5,0.1,1,0.2,1.2C117.7,42.7,118,42.9,118.4,42.9z"/>
		<path d="M126.9,46.5c-1.1,0-2-0.3-2.6-1c-0.6-0.7-0.9-1.6-0.9-2.9c0-1.3,0.3-2.3,0.9-3c0.6-0.7,1.4-1,2.5-1c1,0,1.8,0.3,2.3,0.9
			c0.6,0.6,0.9,1.4,0.9,2.5v0.7h-4.7c0,1,0.2,1.7,0.5,2.1c0.3,0.4,0.8,0.7,1.4,0.7c0.5,0,0.9-0.1,1.2-0.3c0.3-0.2,0.6-0.5,0.8-0.8
			c0.2,0.1,0.3,0.3,0.3,0.6c0,0.2-0.1,0.5-0.3,0.7c-0.2,0.2-0.5,0.4-0.9,0.6C128,46.4,127.5,46.5,126.9,46.5z M125.2,41.8h2.8
			c0-0.7-0.1-1.3-0.3-1.7c-0.2-0.4-0.5-0.6-1-0.6c-0.4,0-0.8,0.2-1,0.6C125.4,40.4,125.3,41,125.2,41.8z"/>
		<path d="M130.9,46.3v-0.7h0c0.3,0,0.6-0.1,0.8-0.2c0.2-0.1,0.3-0.4,0.3-0.8v-4.2c0-0.4-0.1-0.7-0.3-0.8c-0.2-0.1-0.5-0.2-0.8-0.2
			h0v-0.7h2.6l0.3,1.2h0.1c0.2-0.4,0.4-0.8,0.7-1c0.3-0.2,0.7-0.4,1.3-0.4c1.1,0,1.6,0.4,1.6,1.1c0,0.4-0.1,0.7-0.4,0.9
			c-0.3,0.2-0.7,0.3-1.2,0.3c0-0.4-0.1-0.7-0.2-0.9c-0.1-0.2-0.3-0.3-0.6-0.3c-0.3,0-0.5,0.1-0.6,0.3c-0.2,0.2-0.3,0.4-0.4,0.7
			c-0.1,0.3-0.2,0.6-0.2,0.8c0,0.3,0,0.5,0,0.7v2.4c0,0.4,0.1,0.7,0.3,0.8c0.2,0.1,0.5,0.2,0.7,0.2h0.4v0.7H130.9z"/>
	</g>
</g>
<g>
	<g>
		<polygon points="17.7,41.1 0,41.1 0,0 17.7,0 17.7,2.8 2.8,2.8 2.8,38.3 17.7,38.3 		"/>
	</g>
	<g>
		<polygon points="159.3,41.1 141.1,41.1 141.1,38.3 156.5,38.3 156.5,2.8 141.1,2.8 141.1,0 159.3,0 		"/>
	</g>
</g>
</svg>
